<?xml version="1.0" encoding="iso-8859-1"?>
<!-- Generator: Adobe Illustrator 19.0.0, SVG Export Plug-In . SVG Version: 6.00 Build 0)  -->
<svg version="1.1" id="Layer_1" xmlns="http://www.w3.org/2000/svg" xmlns:xlink="http://www.w3.org/1999/xlink" x="0px" y="0px"
	 viewBox="0 0 330 330" style="enable-background:new 0 0 330 330;" xml:space="preserve">
<g id="XMLID_813_">
	<path id="XMLID_814_" d="M15,130c8.284,0,15-6.716,15-15V30h85c8.284,0,15-6.716,15-15s-6.716-15-15-15H15C6.716,0,0,6.716,0,15
		v100C0,123.284,6.716,130,15,130z"/>
	<path id="XMLID_815_" d="M15,330h100c8.284,0,15-6.716,15-15s-6.716-15-15-15H30v-85c0-8.284-6.716-15-15-15s-15,6.716-15,15v100
		C0,323.284,6.716,330,15,330z"/>
	<path id="XMLID_816_" d="M315,200c-8.284,0-15,6.716-15,15v85h-85c-8.284,0-15,6.716-15,15s6.716,15,15,15h100
		c8.284,0,15-6.716,15-15V215C330,206.716,323.284,200,315,200z"/>
	<path id="XMLID_817_" d="M215,30h85v85c0,8.284,6.716,15,15,15s15-6.716,15-15V15c0-8.284-6.716-15-15-15H215
		c-8.284,0-15,6.716-15,15S206.716,30,215,30z"/>
	<path id="XMLID_818_" d="M75,165c0,8.284,6.716,15,15,15h60v60c0,8.284,6.716,15,15,15s15-6.716,15-15v-60h60
		c8.284,0,15-6.716,15-15s-6.716-15-15-15h-60V90c0-8.284-6.716-15-15-15s-15,6.716-15,15v60H90C81.716,150,75,156.716,75,165z"/>
</g>
<g>
</g>
<g>
</g>
<g>
</g>
<g>
</g>
<g>
</g>
<g>
</g>
<g>
</g>
<g>
</g>
<g>
</g>
<g>
</g>
<g>
</g>
<g>
</g>
<g>
</g>
<g>
</g>
<g>
</g>
</svg>
